<svg xmlns="http://www.w3.org/2000/svg" viewBox="0 0 24 24"><path fill="#EC0000" fill-rule="nonzero" d="M17.272 6.24c2.316 0 4.13 1.183 4.13 2.693v9.695c0 1.51-1.814 2.693-4.13 2.693-1.585 0-2.92-.562-3.613-1.396-.694.834-2.028 1.396-3.613 1.396-2.316 0-4.13-1.183-4.13-2.693v-3.232c0-1.51 1.814-2.693 4.13-2.693 1.253 0 2.346.354 3.097.91v-4.68c0-1.51 1.813-2.693 4.13-2.693zm3.097 10.939c-.751.557-1.844.91-3.097.91s-2.346-.353-3.097-.91v1.449c0 .764 1.272 1.616 3.097 1.616s3.097-.852 3.097-1.616v-1.45zm-7.226 0c-.751.557-1.844.91-3.097.91s-2.346-.353-3.097-.91v1.449c0 .764 1.272 1.616 3.097 1.616s3.097-.852 3.097-1.616v-1.45zm7.226-3.232c-.751.557-1.844.91-3.097.91s-2.346-.353-3.097-.91v1.45c0 .763 1.272 1.615 3.097 1.615s3.097-.852 3.097-1.616v-1.449zm-10.323-.167c-1.825 0-3.097.852-3.097 1.616 0 .764 1.272 1.616 3.097 1.616s3.097-.852 3.097-1.616c0-.764-1.272-1.616-3.097-1.616zm10.323-3.064c-.751.557-1.844.91-3.097.91s-2.346-.353-3.097-.91v1.449c0 .764 1.272 1.615 3.097 1.615s3.097-.851 3.097-1.615v-1.45zM8.146 4.146a.5.5 0 0 1 .708 0l3 3a.51.51 0 0 1 .135.249A.498.498 0 0 1 12 7.5l-.005-.072A.503.503 0 0 1 12 7.48v.02a.509.509 0 0 1-.077.267.498.498 0 0 1-.07.087l.045-.052a.503.503 0 0 1-.033.04l-.011.012-3 3a.5.5 0 0 1-.708-.708L10.292 8H4.5a.5.5 0 0 1-.492-.41L4 7.5a.5.5 0 0 1 .5-.5h5.792L8.146 4.854a.5.5 0 0 1-.057-.638zm9.126 3.171c-1.825 0-3.097.852-3.097 1.616 0 .764 1.272 1.616 3.097 1.616s3.097-.852 3.097-1.616c0-.764-1.272-1.616-3.097-1.616z"/></svg>