<svg xmlns="http://www.w3.org/2000/svg" viewBox="0 0 24 24"><path fill="#EC0000" fill-rule="nonzero" d="M2.504 2c.05 0 .096.008.14.02l.076.029 1.96.938 1.955-.901a.5.5 0 0 1 .337-.03l.081.03 1.961.903 1.96-.903a.5.5 0 0 1 .338-.03l.081.03 1.957.901 1.958-.938.216-.05c.25 0 .455.178.497.41l.008.09v7.039a.5.5 0 0 1-.992.09l-.008-.09V3.29l-1.459.7a.5.5 0 0 1-.342.033l-.083-.03-1.96-.904-1.962.904a.5.5 0 0 1-.336.03l-.082-.03-1.96-.904-1.96.904a.5.5 0 0 1-.343.028l-.083-.031L3 3.29v17.43l1.464-.672a.5.5 0 0 1 .336-.03l.082.03 1.962.902 1.963-.902a.5.5 0 0 1 .336-.03l.082.03 2.171.998a.499.499 0 0 1-.333.937l-.085-.03-1.962-.902-1.963.902a.5.5 0 0 1-.337.029l-.081-.03-1.962-.901-1.963.902a.5.5 0 0 1-.703-.372L2 21.5v-19a.5.5 0 0 1 .41-.492L2.504 2zm14.364 11.147a.5.5 0 0 1 .058.637l-.058.07L14.722 16H21.5a.5.5 0 0 1 .492.41l.008.09a.5.5 0 0 1-.41.492L21.5 17h-6.778l2.146 2.147a.5.5 0 0 1 .058.637l-.058.07a.5.5 0 0 1-.638.058l-.07-.058-2.943-2.942a.5.5 0 0 1 0-.824l2.944-2.941a.5.5 0 0 1 .707 0zM9.515 13a.5.5 0 0 1 .09.992l-.09.008h-4a.5.5 0 0 1-.09-.992l.09-.008h4zm3-3a.5.5 0 0 1 .09.992l-.09.008h-7a.5.5 0 0 1-.09-.992l.09-.008h7zm0-3a.5.5 0 0 1 .09.992l-.09.008h-7a.5.5 0 0 1-.09-.992L5.515 7h7z"/></svg>