<?xml version="1.0" encoding="UTF-8"?>
<svg width="16px" height="16px" viewBox="0 0 16 16" version="1.1" xmlns="http://www.w3.org/2000/svg" xmlns:xlink="http://www.w3.org/1999/xlink">
    <title>icon</title>
    <g id="Page-1" stroke="none" stroke-width="1" fill="none" fill-rule="evenodd">
        <g id="Artboard" transform="translate(-307.000000, -105.000000)" fill="#767676" fill-rule="nonzero">
            <g id="Forms,-data-input-and-selections/Text-input/a.-background-main/a.-simple/a.-default" transform="translate(53.000000, 89.000000)">
                <path d="M262,16 C266.418278,16 270,19.581722 270,24 C270,28.418278 266.418278,32 262,32 C257.581722,32 254,28.418278 254,24 C254,19.581722 257.581722,16 262,16 Z M265.30388,20.5279523 C264.989285,20.294365 264.546063,20.3225664 264.261343,20.6072866 L264.261343,20.6072866 L262,22.869 L259.738657,20.6072866 C259.453937,20.3225664 259.010715,20.294365 258.69612,20.5279523 L258.605887,20.6058875 C258.293468,20.9183069 258.298019,21.4293902 258.607287,21.7386574 L260.869,24 L258.607287,26.2613426 C258.326135,26.5424946 258.296814,26.9904368 258.528532,27.3042826 L258.605887,27.3941125 L258.69612,27.4720477 C259.010715,27.705635 259.453937,27.6774336 259.738657,27.3927134 L259.738657,27.3927134 L262,25.131 L264.261343,27.3927134 C264.546063,27.6774336 264.989285,27.705635 265.30388,27.4720477 L265.394113,27.3941125 C265.706532,27.0816931 265.701981,26.5706098 265.392713,26.2613426 L263.131,24 L265.392713,21.7386574 C265.673865,21.4575054 265.703186,21.0095632 265.471468,20.6957174 L265.394113,20.6058875 Z" id="icon"></path>
            </g>
        </g>
    </g>
</svg>