<svg xmlns="http://www.w3.org/2000/svg" viewBox="0 0 24 24"><path fill="#EC0000" fill-rule="nonzero" d="M10.486 3c3.118 0 5.743 2.222 6.356 5.166l.044.234 3.25-3.25c.19-.2.51-.2.7 0 .178.169.198.44.06.632l-.06.068-3.86 3.86a6.37 6.37 0 0 1-.573 2.46l-.137.281 5.11 5.11c.377.377.585.88.585 1.414 0 .534-.208 1.036-.586 1.414-.377.378-.88.586-1.414.586-.475 0-.924-.164-1.283-.466l-.13-.12-5.112-5.109-.27.132a6.388 6.388 0 0 1-2.68.588 6.492 6.492 0 0 1-5.45-2.971l-.13-.209-1.05 1.06c-.1.1-.23.14-.36.14a.49.49 0 0 1-.35-.14.505.505 0 0 1-.059-.64l.06-.07 1.29-1.3c-.29-.73-.45-1.53-.45-2.37 0-3.58 2.92-6.5 6.5-6.5zm10.182 15.268l-4.94-4.94c-.327.452-.714.86-1.147 1.21l-.267.204 4.94 4.94a1.024 1.024 0 0 0 1.414 0 .993.993 0 0 0 .293-.707.992.992 0 0 0-.205-.607l-.088-.1zM10.486 4a5.51 5.51 0 0 0-5.27 7.08c.11.35.25.68.42 1a5.5 5.5 0 0 0 4.85 2.92 5.503 5.503 0 0 0 5.475-5.007l.015-.223c.01-.09.01-.18.01-.27 0-.255-.017-.504-.05-.748l-.04-.242V8.5c-.47-2.55-2.72-4.5-5.41-4.5zm2.65 3.15a.502.502 0 0 1 .553-.111l.077.041.81.54c.175.375.295.785.359 1.212l.031.258-1.42-.95-3.71 3.71a.484.484 0 0 1-.632.06l-.068-.06-1.65-1.64-1.11 1.12a4.615 4.615 0 0 1-.287-.863l-.043-.227 1.08-1.09c.1-.1.23-.15.36-.15a.48.48 0 0 1 .292.096l.058.054 1.65 1.64 3.65-3.64z"/></svg>