<svg xmlns="http://www.w3.org/2000/svg" viewBox="0 0 24 24"><path fill="#EC0000" fill-rule="nonzero" d="M5.5 2h8c.136 0 .255.058.343.147l.06.073 4.927 4.927a.501.501 0 0 1 .162.283l.008.087-.008.038L19 21.5a.5.5 0 0 1-.421.494L18.5 22h-13a.5.5 0 0 1-.492-.41L5 21.5v-19a.5.5 0 0 1 .5-.5zm7.502 1H6v18h12l-.008-12.986L13.522 8a.5.5 0 0 1-.49-.408l-.009-.09L13.003 3zm-1.087 7.714c.248 0 .454.175.497.405l.008.088v2.694h2.762c.248 0 .454.175.497.405l.008.088a.497.497 0 0 1-.414.485l-.091.008H12.42v2.695a.497.497 0 0 1-.414.485l-.09.008a.502.502 0 0 1-.498-.405l-.008-.088v-2.696l-2.762.001a.502.502 0 0 1-.497-.404l-.008-.089c0-.242.179-.443.414-.485l.091-.008h2.762v-2.694c0-.242.179-.443.414-.485l.091-.008zm2.09-6.978l.016 3.265 3.26.01-3.275-3.275z"/></svg>