<svg xmlns="http://www.w3.org/2000/svg" viewBox="0 0 24 24"><path fill="#EC0000" fill-rule="nonzero" d="M11.5 5a.5.5 0 0 1 0 1H4a1 1 0 1 0 0 2h7.5a.5.5 0 0 1 .498.475L12 8.5a.5.5 0 0 1-.5.5H4a1.99 1.99 0 0 1-1-.268V19.02c0 .534.42.964.95.98l.03.001h15.04c.533 0 .962-.42.979-.95V17h-3.5a.5.5 0 0 1-.499-.474V13.5a.5.5 0 1 1 1 0V16h4v-3h-.5a.5.5 0 0 1 0-1h1.025a.5.5 0 0 1 .473.475l.001.025v4a.5.5 0 0 1-.475.5h-.525v2.019c0 1.084-.862 1.96-1.94 1.98l-.04.001H3.98A1.977 1.977 0 0 1 2 19.059V6.999a2 2 0 0 1 2-2h7.5zm6-2C19.982 3 22 5.019 22 7.5S19.982 12 17.5 12A4.505 4.505 0 0 1 13 7.5C13 5.019 15.02 3 17.5 3zm0 1C15.57 4 14 5.57 14 7.5s1.57 3.5 3.5 3.5S21 9.43 21 7.5 19.43 4 17.5 4zm1.768 1.732a.5.5 0 0 1 .019.687l-.019.02-1.06 1.061 1.06 1.06a.5.5 0 0 1-.687.727l-.02-.02-1.06-1.06-1.061 1.06a.5.5 0 0 1-.726-.686l.019-.02 1.06-1.061-1.06-1.06a.5.5 0 0 1 .687-.727l.02.02 1.06 1.06 1.061-1.06a.5.5 0 0 1 .707 0z"/></svg>