<svg xmlns="http://www.w3.org/2000/svg" viewBox="0 0 24 24"><path fill="#EC0000" fill-rule="nonzero" d="M14.003 2c1.053 0 1.915.815 1.992 1.849l.005.149V5h2.466l.051-.003L19.5 5a.5.5 0 0 1 .09.992L19.5 6H19v12.024a3.973 3.973 0 0 1-3.775 3.968l-.198.005H8.973a3.973 3.973 0 0 1-3.968-3.775L5 18.024V6h-.5a.5.5 0 0 1-.492-.41L4 5.5a.5.5 0 0 1 .41-.492L4.5 5h.966l.051-.003L8 5V3.998c0-1.054.814-1.916 1.848-1.993L9.997 2h4.006zM18 6H6v12.024a2.973 2.973 0 0 0 2.798 2.968l.175.005h6.054a2.973 2.973 0 0 0 2.968-2.798l.005-.175V6zM8.5 8a.5.5 0 0 1 .492.41L9 8.5v10a.5.5 0 0 1-.992.09L8 18.5v-10a.5.5 0 0 1 .5-.5zM12 8a.5.5 0 0 1 .492.41l.008.09v10a.5.5 0 0 1-.992.09l-.008-.09v-10A.5.5 0 0 1 12 8zm3.5 0a.5.5 0 0 1 .492.41L16 8.5v10a.5.5 0 0 1-.992.09L15 18.5v-10a.5.5 0 0 1 .5-.5zm-1.497-5H9.997a.997.997 0 0 0-.99.882L9 3.998V5h6V3.998a.997.997 0 0 0-.88-.991L14.002 3z"/></svg>