<svg xmlns="http://www.w3.org/2000/svg" viewBox="0 0 24 24"><path fill="#EC0000" fill-rule="nonzero" d="M21.497 15a.5.5 0 0 1 .5.5v2.535A3.974 3.974 0 0 1 18.024 22H5.973A3.974 3.974 0 0 1 2 18.035v-2.536a.5.5 0 0 1 1 0v2.536a2.974 2.974 0 0 0 2.973 2.967h12.051a2.974 2.974 0 0 0 2.973-2.967v-2.536a.5.5 0 0 1 .5-.499zM12.204 2.04a.536.536 0 0 1 .175.112l3.964 3.854a.51.51 0 0 1 0 .735.546.546 0 0 1-.756 0l-3.052-2.967V16.48c0 .287-.24.52-.535.52a.527.527 0 0 1-.535-.52V3.774L8.413 6.741a.546.546 0 0 1-.756 0 .51.51 0 0 1 0-.735l3.964-3.854a.549.549 0 0 1 .583-.113z"/></svg>