<svg xmlns="http://www.w3.org/2000/svg" xmlns:xlink="http://www.w3.org/1999/xlink" viewBox="0 0 24 24"><defs><path id="a" d="M19.998 10.19a.5.5 0 0 1-.867.203l-6.64-6.668v17.788a.5.5 0 0 1-.5.5.5.5 0 0 1-.49-.5v-17.8l-6.66 6.68a.5.5 0 0 1-.71 0 .46.46 0 0 1-.14-.38.46.46 0 0 1 .14-.35l7.5-7.53a.49.49 0 0 1 .36-.12.47.47 0 0 1 .086.007l-.086-.007c.037 0 .073.004.108.012l.057.016.065.029c.064.032.12.078.163.134l7.457 7.489a.5.5 0 0 1 .157.498z"/></defs><use fill="#EC0000" fill-rule="nonzero" xlink:href="#a"/></svg>