<svg xmlns="http://www.w3.org/2000/svg" viewBox="0 0 24 24"><path fill="#EC0000" fill-rule="nonzero" d="M7.5 8a.5.5 0 0 1 .09.992L7.5 9H6.45a3.98 3.98 0 0 1-3.251 3.42L3 12.45v4.1a3.98 3.98 0 0 1 3.42 3.251l.03.199h11.1a3.98 3.98 0 0 1 3.251-3.42l.199-.03v-4.1a3.98 3.98 0 0 1-3.42-3.251L17.55 9H16.5a.5.5 0 0 1-.09-.992L16.5 8h5a.5.5 0 0 1 .492.41L22 8.5v12a.5.5 0 0 1-.41.492L21.5 21h-19a.5.5 0 0 1-.492-.41L2 20.5v-12a.5.5 0 0 1 .41-.492L2.5 8h5zM3 17.55V20h2.45a2.995 2.995 0 0 0-2.264-2.412L3 17.551zm18 0a2.995 2.995 0 0 0-2.412 2.264l-.037.186H21v-2.45zM11.646 3.147a.5.5 0 0 1 .638-.057l.07.057 3 3a.5.5 0 0 1-.63.772l-.078-.064L12.5 4.707v6.344c1.692.245 3 1.69 3 3.449 0 1.93-1.57 3.5-3.5 3.5s-3.5-1.57-3.5-3.5c0-1.696 1.217-3.1 2.82-3.419l.18-.03V4.707L9.354 6.854a.5.5 0 0 1-.765-.638l.057-.07 3-3zM12 12a2.503 2.503 0 0 0-2.5 2.5c0 1.379 1.122 2.5 2.5 2.5s2.5-1.121 2.5-2.5S13.378 12 12 12zm9-3h-2.45a2.995 2.995 0 0 0 2.264 2.412l.186.037V9zM5.45 9H3v2.45a2.995 2.995 0 0 0 2.412-2.264L5.449 9z"/></svg>