<svg xmlns="http://www.w3.org/2000/svg" viewBox="0 0 24 24"><path fill="#EC0000" fill-rule="nonzero" d="M2.504 2a.52.52 0 0 1 .14.021l.076.028 1.96.938 1.955-.901a.5.5 0 0 1 .337-.03l.081.03 1.961.903 1.96-.903a.5.5 0 0 1 .338-.03l.081.03 1.957.901 1.958-.938.216-.05c.25 0 .455.178.497.41l.008.09v7.039a.5.5 0 0 1-.992.09l-.008-.09V3.29l-1.459.7a.5.5 0 0 1-.342.033l-.083-.03-1.96-.904-1.962.904a.5.5 0 0 1-.336.03l-.082-.03-1.96-.904-1.96.904a.5.5 0 0 1-.343.028l-.083-.031L3 3.29v17.466l1.464-.673a.5.5 0 0 1 .336-.03l.082.03 1.962.904 1.963-.904a.5.5 0 0 1 .336-.03l.082.03 2.171 1a.5.5 0 0 1-.333.939l-.085-.03-1.962-.904-1.963.903a.5.5 0 0 1-.337.03l-.081-.03-1.962-.903-1.963.903a.5.5 0 0 1-.703-.372L2 21.538V2.5a.498.498 0 0 1 .118-.322l.06-.06a.498.498 0 0 1 .232-.11L2.504 2zm10.122 10.61a5.501 5.501 0 1 1 7.778 7.782 5.501 5.501 0 0 1-7.778-7.781zm7.07.708a4.501 4.501 0 1 0-6.363 6.367 4.501 4.501 0 0 0 6.364-6.367zm-4.826 1.57a.5.5 0 0 1 .638-.057l.07.058 1.059 1.06 1.063-1.06a.5.5 0 0 1 .637-.058l.07.058a.5.5 0 0 1 .057.638l-.057.069-1.062 1.06 1.062 1.06a.5.5 0 0 1 .058.639l-.058.069a.5.5 0 0 1-.638.058l-.07-.058-1.061-1.061-1.06 1.06a.5.5 0 0 1-.638.059l-.07-.058a.5.5 0 0 1-.057-.638l.058-.07 1.059-1.06-1.06-1.06a.5.5 0 0 1-.057-.638l.057-.07zM9.515 13a.5.5 0 0 1 .09.992l-.09.008h-4a.5.5 0 0 1-.09-.992l.09-.008h4zm3-3a.5.5 0 0 1 .09.992l-.09.008h-7a.5.5 0 0 1-.09-.992l.09-.008h7zm0-3a.5.5 0 0 1 .09.992l-.09.008h-7a.5.5 0 0 1-.09-.992L5.515 7h7z"/></svg>