<svg xmlns="http://www.w3.org/2000/svg" viewBox="0 0 24 24"><path fill="#EC0000" fill-rule="nonzero" d="M6.987 13.477a.5.5 0 0 1 .5.5v.498h2.806c.52 0 1.022.184 1.418.515l.143.13c.194.194.447.315.717.346l.136.008H16a1.5 1.5 0 0 1 1.477 1.234l1.653-.773c.785-.4 1.789-.199 2.188.626.374.775.161 1.587-.556 2.13l-.14.098-4.198 2.174c-1.063.548-3.195.69-4.438.365l-.223-.066-4.276-.853v.554a.5.5 0 0 1-.5.5H3.802A2.3 2.3 0 0 1 1.5 19.164v-5.189a.5.5 0 0 1 .5-.499h4.987zm.5 5.914l4.534.908c.944.318 2.81.243 3.765-.141l.178-.081 4.153-2.149c.375-.245.475-.571.3-.933-.114-.237-.43-.322-.743-.209l-.104.045-2.467 1.155c-.24.26-.57.434-.941.473l-.162.009h-3a.5.5 0 0 1-.09-.99l.09-.008h3a.499.499 0 0 0 .289-.091.473.473 0 0 1 .227-.222l-.072.044a.5.5 0 0 0-.354-.722l-.09-.007h-3.293a2.21 2.21 0 0 1-1.417-.515l-.143-.13a1.208 1.208 0 0 0-.718-.346l-.136-.007-2.806-.001v3.918zm-1-4.916H2.5v4.69c0 .717.583 1.3 1.302 1.3h2.685v-5.99zM13.525 1.5a6.02 6.02 0 0 1 6.025 6.014c0 3.32-2.698 6.013-6.025 6.013-3.327 0-6.025-2.692-6.025-6.013A6.02 6.02 0 0 1 13.525 1.5zm0 .998A5.02 5.02 0 0 0 8.5 7.514a5.02 5.02 0 0 0 5.025 5.014 5.02 5.02 0 0 0 5.025-5.014 5.02 5.02 0 0 0-5.025-5.016zm0 1.508a.5.5 0 0 1 .492.409l.008.09v2.51h2.427a.5.5 0 0 1 .09.99l-.09.008h-2.927a.5.5 0 0 1-.492-.41l-.008-.089v-3.01a.5.5 0 0 1 .5-.498z"/></svg>