<svg xmlns="http://www.w3.org/2000/svg" viewBox="0 0 24 24"><path fill="#EC0000" fill-rule="nonzero" d="M4.5 2h7.988c.195 0 .356.099.444.248l4.82 4.82a.5.5 0 0 1 .24.52L18 9.498a.5.5 0 0 1-.992.094L17 9.502l-.007-1.504-4.472-.014a.5.5 0 0 1-.49-.408l-.008-.09L12.001 3H5v18h6.5a.5.5 0 0 1 .09.992L11.5 22h-7a.5.5 0 0 1-.492-.41L4 21.5v-19a.5.5 0 0 1 .5-.5zm12 10a4.5 4.5 0 1 1 0 9 4.5 4.5 0 0 1 0-9zm2.643 2.205l-4.53 5.243a3.5 3.5 0 0 0 4.53-5.243zM16.5 13a3.5 3.5 0 0 0-2.643 5.795l4.53-5.243A3.483 3.483 0 0 0 16.5 13zm-3.495-9.264l.016 3.25 3.244.01-3.26-3.26z"/></svg>