<svg xmlns="http://www.w3.org/2000/svg" viewBox="0 0 24 24"><path fill="#EC0000" fill-rule="nonzero" d="M14.025 2c1.04 0 1.894.807 1.97 1.827L16 4h2.5a.5.5 0 0 1 .492.41L19 4.5v17a.5.5 0 0 1-.41.492L18.5 22h-13a.5.5 0 0 1-.492-.41L5 21.5v-17a.5.5 0 0 1 .41-.492L5.5 4H8v-.025c0-1.04.807-1.894 1.827-1.97L9.975 2h4.05zM8 5H6v16h12V5h-2v.5a.5.5 0 0 1-.41.492L15.5 6h-7a.5.5 0 0 1-.492-.41L8 5.5V5zm7.5 12a.5.5 0 0 1 .09.992L15.5 18h-4a.5.5 0 0 1-.09-.992L11.5 17h4zm-6 0a.5.5 0 0 1 .09.992L9.5 18h-1a.5.5 0 0 1-.09-.992L8.5 17h1zm6-3a.5.5 0 0 1 .09.992L15.5 15h-4a.5.5 0 0 1-.09-.992L11.5 14h4zm-6 0a.5.5 0 0 1 .09.992L9.5 15h-1a.5.5 0 0 1-.09-.992L8.5 14h1zm6-3a.5.5 0 0 1 .09.992L15.5 12h-4a.5.5 0 0 1-.09-.992L11.5 11h4zm-6 0a.5.5 0 0 1 .09.992L9.5 12h-1a.5.5 0 0 1-.09-.992L8.5 11h1zm6-3a.5.5 0 0 1 .09.992L15.5 9h-4a.5.5 0 0 1-.09-.992L11.5 8h4zm-6 0a.5.5 0 0 1 .09.992L9.5 9h-1a.5.5 0 0 1-.09-.992L8.5 8h1zm4.525-5h-4.05a.976.976 0 0 0-.968.861L9 3.975V5h6V3.975a.976.976 0 0 0-.861-.968L14.025 3z"/></svg>