<svg xmlns="http://www.w3.org/2000/svg" viewBox="0 0 24 24"><path fill="#EC0000" fill-rule="nonzero" d="M7.487 13.986a.5.5 0 0 1 .5.499v.497l2.806.001c.52 0 1.022.183 1.417.514l.144.13c.194.194.447.315.717.345l.136.008H16.5c.739 0 1.352.532 1.477 1.232l1.653-.771c.785-.4 1.788-.198 2.187.626.375.774.162 1.585-.556 2.127l-.14.098-4.198 2.17c-1.063.548-3.196.69-4.437.365l-.222-.066-4.278-.85.001.552a.5.5 0 0 1-.5.499H4.301a2.298 2.298 0 0 1-2.3-2.295v-5.182a.5.5 0 0 1 .5-.499h4.986zm.5 5.907l4.535.907c.942.318 2.808.243 3.763-.142l.178-.08 4.154-2.146c.374-.244.474-.57.3-.932-.115-.237-.431-.322-.744-.21l-.103.046-2.467 1.153c-.24.26-.57.434-.942.473l-.161.009h-3a.5.5 0 0 1-.09-.989l.09-.008h3a.499.499 0 0 0 .288-.09.473.473 0 0 1 .227-.222l-.071.044a.499.499 0 0 0-.354-.72l-.09-.009h-3.293a2.21 2.21 0 0 1-1.417-.514l-.144-.13a1.208 1.208 0 0 0-.717-.345l-.136-.008H7.986v3.913zm-1-4.91H3v4.684a1.3 1.3 0 0 0 1.301 1.298h2.686v-5.982zm4.17-12.973c.308-.034.642.014 1.107.135l1.027.288.203.046.097.014a.805.805 0 0 0 .041.003h.076l.084-.008.107-.02.231-.058.735-.21c.576-.16.962-.229 1.314-.19.583.064.957.457.957 1.087 0 .658-.372 1.253-.97 1.797a5.577 5.577 0 0 1-.276.234 6.194 6.194 0 0 1 2.341 4.866c0 2.255-1.72 3.24-4.565 3.24-2.844 0-4.564-.986-4.564-3.24 0-1.943.888-3.71 2.34-4.867a5.467 5.467 0 0 1-.273-.233c-.599-.544-.97-1.139-.97-1.797 0-.63.374-1.024.958-1.087zm3.714 3.61H12.46a5.21 5.21 0 0 0-2.358 4.374c0 1.556 1.2 2.242 3.564 2.242 2.367 0 3.566-.686 3.566-2.242 0-1.77-.874-3.362-2.279-4.32l-.082-.054zm1.255-2.614L16.07 3c-.16-.018-.407.02-.772.115l-.957.27-.195.05-.155.032-.132.018a1.56 1.56 0 0 1-.062.005l-.192.003-.063-.003-.13-.012-.143-.025-.174-.04-.353-.097-.54-.156c-.4-.112-.677-.166-.863-.164l-.13.009c-.01.002-.013.006-.013.02l.002.071c0 .314.234.687.645 1.06.176.16.353.295.502.397l.107.07h2.43c.168-.106.39-.266.609-.466.41-.374.645-.747.645-1.06l.002-.072c0-.013-.003-.018-.012-.02z"/></svg>