<svg xmlns="http://www.w3.org/2000/svg" viewBox="0 0 24 24"><path fill="#EC0000" fill-rule="nonzero" d="M6 8c2.168 0 3.882 1.026 3.994 2.36l.006.14v4.345c.728-.517 1.787-.845 3-.845 2.168 0 3.882 1.026 3.994 2.36l.006.14v3c0 1.402-1.757 2.5-4 2.5-1.536 0-2.828-.521-3.5-1.296C8.828 21.479 7.536 22 6 22c-2.168 0-3.882-1.026-3.994-2.36L2 19.5v-9C2 9.098 3.757 8 6 8zm3 10.155c-.728.517-1.787.845-3 .845-1.12 0-2.108-.28-2.826-.73L3 18.156V19.5c0 .71 1.232 1.5 3 1.5 1.694 0 2.896-.726 2.994-1.411L9 19.5v-1.345zm7 0c-.728.517-1.787.845-3 .845-1.12 0-2.108-.28-2.826-.73L10 18.156V19.5c0 .71 1.232 1.5 3 1.5 1.694 0 2.896-.726 2.994-1.411L16 19.5v-1.345zm-7-3c-.728.517-1.787.845-3 .845-1.12 0-2.108-.28-2.826-.73L3 15.156V16.5c0 .71 1.232 1.5 3 1.5 1.694 0 2.896-.726 2.994-1.411L9 16.5v-1.345zM13 15c-1.768 0-3 .79-3 1.5s1.232 1.5 3 1.5 3-.79 3-1.5-1.232-1.5-3-1.5zm-4-2.845c-.728.517-1.787.845-3 .845-1.12 0-2.108-.28-2.826-.73L3 12.156V13.5c0 .71 1.232 1.5 3 1.5 1.694 0 2.896-.726 2.994-1.411L9 13.5v-1.345zM6 9c-1.768 0-3 .79-3 1.5S4.232 12 6 12s3-.79 3-1.5S7.768 9 6 9zm12.51-7a.5.5 0 0 1 .5.5v.894l.445.256.788-.45a.5.5 0 0 1 .68.183l1.009 1.732a.5.5 0 0 1-.184.685l-.776.444v.512l.777.445a.5.5 0 0 1 .183.685l-1.01 1.732a.5.5 0 0 1-.68.182l-.787-.45-.446.256v.893a.5.5 0 0 1-.5.5h-2.018a.5.5 0 0 1-.5-.5v-.893l-.446-.256-.788.45a.5.5 0 0 1-.68-.182l-1.009-1.732a.5.5 0 0 1 .183-.685l.777-.445v-.512l-.776-.444a.5.5 0 0 1-.184-.685l1.01-1.732a.5.5 0 0 1 .68-.183l.787.45.446-.256v-.895a.5.5 0 0 1 .5-.5h2.018zm-.5 1h-1.02v.683a.5.5 0 0 1-.25.434l-.946.543a.5.5 0 0 1-.497 0l-.605-.346-.506.869.59.337a.5.5 0 0 1 .252.434v1.091a.5.5 0 0 1-.251.434l-.591.339.505.868.606-.347a.5.5 0 0 1 .497 0l.946.544a.5.5 0 0 1 .25.433V10h1.02v-.683a.5.5 0 0 1 .25-.433l.946-.543a.5.5 0 0 1 .497 0l.606.346.505-.868-.59-.339a.5.5 0 0 1-.252-.434v-1.09a.5.5 0 0 1 .252-.435l.59-.337-.506-.869-.605.347a.5.5 0 0 1-.497-.001l-.946-.543a.5.5 0 0 1-.25-.434V3zm-.51 2.51a.991.991 0 1 1 0 1.982.991.991 0 0 1 0-1.982z"/></svg>