<svg xmlns="http://www.w3.org/2000/svg" viewBox="0 0 24 24"><path fill="#EC0000" fill-rule="nonzero" d="M18.97 4a3.034 3.034 0 0 1 3.025 2.852L22 7.03v1.94a3.035 3.035 0 0 1-2.824 3.023L19 12v2.5a.5.5 0 0 1-.792.406l-.062-.052L16 12.707v1.263a3.034 3.034 0 0 1-2.852 3.025L12.97 17H8.707l-2.853 2.854a.5.5 0 0 1-.847-.269L5 19.5V17a3.035 3.035 0 0 1-2.995-2.854L2 13.97v-1.94a3.034 3.034 0 0 1 2.852-3.025L5.03 9h2.973L8 8.97V7.03a3.034 3.034 0 0 1 2.852-3.025L11.03 4h7.94zM8.182 10H5.03c-1.068 0-1.947.83-2.024 1.879l-.006.15v1.94c0 1.07.83 1.948 1.879 2.025L5.03 16h.47a.5.5 0 0 1 .492.41L6 16.5v1.793l2.146-2.147a.5.5 0 0 1 .275-.14L8.5 16h4.47c1.068 0 1.947-.83 2.024-1.879L15 13.97V12h-3.97c-.173 0-.342-.016-.507-.043l-.161-.038a3.033 3.033 0 0 1-.318-.083l-.09-.035-.09-.038a2.982 2.982 0 0 1-.266-.12l-.088-.052-.087-.054a2.975 2.975 0 0 1-.23-.155 2.978 2.978 0 0 1-.357-.322 2.992 2.992 0 0 1-.14-.159l-.084-.108-.079-.113c-.04-.058-.079-.116-.114-.178l-.067-.126-.105-.224L8.182 10zM6.5 13a.5.5 0 0 1 .09.992L6.5 14h-1a.5.5 0 0 1-.09-.992L5.5 13h1zm6 0a.5.5 0 0 1 .09.992L12.5 14h-1a.5.5 0 0 1-.09-.992L11.5 13h1zm-3 0a.5.5 0 0 1 .09.992L9.5 14h-1a.5.5 0 0 1-.09-.992L8.5 13h1zm9.47-8h-7.94c-1.068 0-1.947.83-2.024 1.879L9 7.029v1.94c0 .146.016.286.046.416.175.837.82 1.446 1.629 1.585l.175.022.18.008h4.47a.5.5 0 0 1 .293.095l.06.051L18 13.293V11.5a.5.5 0 0 1 .41-.492L18.5 11h.47c1.068 0 1.947-.83 2.024-1.879L21 8.97V7.03c0-1.068-.83-1.947-1.879-2.024L18.97 5zm-.47 3a.5.5 0 0 1 .09.992L18.5 9h-1a.5.5 0 0 1-.09-.992L17.5 8h1zm-6 0a.5.5 0 0 1 .09.992L12.5 9h-1a.5.5 0 0 1-.09-.992L11.5 8h1zm3 0a.5.5 0 0 1 .09.992L15.5 9h-1a.5.5 0 0 1-.09-.992L14.5 8h1z"/></svg>