<svg xmlns="http://www.w3.org/2000/svg" xmlns:xlink="http://www.w3.org/1999/xlink" viewBox="0 0 24 24"><defs><path id="a" d="M15.758 9.225l-3.132-5.416a4.324 4.324 0 0 1-.495-1.309l-.13.226A4.327 4.327 0 0 0 12 7.06l2.505 4.332a4.327 4.327 0 0 1 0 4.333l-.13.226a4.324 4.324 0 0 0-.496-1.31L10.12 8.142a4.328 4.328 0 0 1-.495-1.31l-.131.227a4.327 4.327 0 0 0-.008 4.318L12 15.724a4.327 4.327 0 0 1 0 4.332l-.13.226a4.322 4.322 0 0 0-.496-1.309l-3.131-5.416a4.324 4.324 0 0 1-.577-2.354C4.314 12.078 2 13.935 2 16.085c0 2.99 4.477 5.415 10 5.415s10-2.425 10-5.415c0-2.15-2.313-4.008-5.666-4.882a4.322 4.322 0 0 0-.576-1.978z"/></defs><use fill="#EC0000" fill-rule="nonzero" xlink:href="#a"/></svg>