<svg xmlns="http://www.w3.org/2000/svg" viewBox="0 0 24 24"><path fill="#EC0000" fill-rule="nonzero" d="M14.025 2c1.04 0 1.894.807 1.97 1.827L16 4h2.5a.5.5 0 0 1 .492.41L19 4.5v17a.5.5 0 0 1-.41.492L18.5 22h-13a.5.5 0 0 1-.492-.41L5 21.5v-17a.5.5 0 0 1 .41-.492L5.5 4H8v-.025c0-1.04.807-1.894 1.827-1.97L9.975 2h4.05zM8 5H6v16h12V5h-2v.5a.5.5 0 0 1-.41.492L15.5 6h-7a.5.5 0 0 1-.492-.41L8 5.5V5zm2.68 10.68a.5.5 0 0 1 .766.638l-.058.07-2 2a.498.498 0 0 1-.629.064l-.078-.064-1-1a.5.5 0 0 1 .637-.765l.07.058.646.646 1.647-1.646zm5.306.32a.5.5 0 0 1 .09.992l-.09.008h-3a.5.5 0 0 1-.09-.992l.09-.008h3zm-5.305-4.32a.5.5 0 0 1 .765.638l-.058.07-2 2a.498.498 0 0 1-.629.064l-.078-.064-1-1a.5.5 0 0 1 .637-.765l.07.058.646.646 1.647-1.646zm5.305.32a.5.5 0 0 1 .09.992l-.09.008h-3a.5.5 0 0 1-.09-.992l.09-.008h3zm-5.305-4.32a.5.5 0 0 1 .765.638l-.058.07-2 2a.498.498 0 0 1-.629.064l-.078-.064-1-1a.5.5 0 0 1 .637-.765l.07.058.646.646 1.647-1.646zm5.305.32a.5.5 0 0 1 .09.992l-.09.008h-3a.5.5 0 0 1-.09-.992l.09-.008h3zm-1.96-5H9.974c-.5 0-.912.377-.968.861L9 3.975V5h6V3.975a.976.976 0 0 0-.861-.968L14.025 3z"/></svg>