<svg xmlns="http://www.w3.org/2000/svg" viewBox="0 0 24 24"><path fill="#EC0000" fill-rule="nonzero" d="M17.974 4a3.03 3.03 0 0 1 3.02 2.849l.006.177v6.945a3.033 3.033 0 0 1-2.85 3.024l-.178.005H9.707l-2.853 2.854a.5.5 0 0 1-.847-.269L6 19.5V17a3.033 3.033 0 0 1-2.995-2.852L3 13.97V7.03a3.033 3.033 0 0 1 2.85-3.024L6.029 4h11.946zm0 1H6.028c-1.067 0-1.945.83-2.022 1.878L4 7.028v6.943c0 1.068.83 1.946 1.877 2.023l.151.006H6.5a.5.5 0 0 1 .492.41L7 16.5v1.793l2.146-2.147a.5.5 0 0 1 .275-.14L9.5 16h8.472c1.067 0 1.945-.83 2.022-1.878l.006-.15V7.025a2.03 2.03 0 0 0-1.875-2.02L17.974 5zM8.646 7.099a.5.5 0 0 1 .638-.058l.07.058L12 9.745 14.646 7.1a.5.5 0 0 1 .765.637l-.057.07-2.647 2.646 2.647 2.647a.5.5 0 0 1-.63.77l-.078-.063L12 11.159l-2.646 2.647a.498.498 0 0 1-.708 0 .5.5 0 0 1-.057-.638l.057-.07 2.647-2.646-2.647-2.646a.5.5 0 0 1 0-.707z"/></svg>